<?xml version="1.0" encoding="UTF-8" standalone="no"?>
<svg
   xmlns:dc="http://purl.org/dc/elements/1.1/"
   xmlns:cc="http://creativecommons.org/ns#"
   xmlns:rdf="http://www.w3.org/1999/02/22-rdf-syntax-ns#"
   xmlns:svg="http://www.w3.org/2000/svg"
   xmlns="http://www.w3.org/2000/svg"
   xmlns:sodipodi="http://sodipodi.sourceforge.net/DTD/sodipodi-0.dtd"
   xmlns:inkscape="http://www.inkscape.org/namespaces/inkscape"
   viewBox="0 0 174.60035 49.720896"
   height="49.720898"
   width="174.60034"
   xml:space="preserve"
   version="1.1"
   id="svg2"
   sodipodi:docname="download-apk.svg"
   inkscape:version="1.0.2-2 (e86c870879, 2021-01-15)"><sodipodi:namedview
     pagecolor="#ffffff"
     bordercolor="#666666"
     borderopacity="1"
     objecttolerance="10"
     gridtolerance="10"
     guidetolerance="10"
     inkscape:pageopacity="0"
     inkscape:pageshadow="2"
     inkscape:window-width="1653"
     inkscape:window-height="1360"
     id="namedview29"
     showgrid="false"
     inkscape:zoom="4.28453"
     inkscape:cx="84.987514"
     inkscape:cy="1.4783561"
     inkscape:window-x="0"
     inkscape:window-y="0"
     inkscape:window-maximized="0"
     inkscape:current-layer="g52" /><metadata
     id="metadata8"><rdf:RDF><cc:Work
         rdf:about=""><dc:format>image/svg+xml</dc:format><dc:type
           rdf:resource="http://purl.org/dc/dcmitype/StillImage" /><dc:title></dc:title></cc:Work></rdf:RDF></metadata><defs
     id="defs6"><clipPath
       id="clipPath26"
       clipPathUnits="userSpaceOnUse"><path
         id="path28"
         d="M 2384.88,198.43 C 2384.88,88.8398 2296.04,0 2186.46,0 H 198.422 C 88.8398,0 0,88.8398 0,198.43 V 1541.5 c 0,109.58 88.8398,198.42 198.422,198.42 H 2186.46 c 109.58,0 198.42,-88.84 198.42,-198.42 z" /></clipPath><clipPath
       id="clipPath38"
       clipPathUnits="userSpaceOnUse"><path
         id="path40"
         d="M 2384.88,198.43 C 2384.88,88.8398 2296.04,0 2186.46,0 H 198.422 C 88.8398,0 0,88.8398 0,198.43 V 1541.5 c 0,109.58 88.8398,198.42 198.422,198.42 H 2186.46 c 109.58,0 198.42,-88.84 198.42,-198.42 z" /></clipPath><clipPath
       id="clipPath44"
       clipPathUnits="userSpaceOnUse"><path
         id="path46"
         d="M 389.004,1518.02 H 2089.06 V -512.012 H 389.004 Z" /></clipPath></defs><g
     transform="matrix(0.22922256,0,0,-0.22922256,-0.80236836,40.111885)"
     id="g10"><g
       transform="scale(0.1)"
       id="g12"><path
         id="path14"
         style="fill:#100f0d;fill-opacity:1;fill-rule:nonzero;stroke:none;stroke-width:1.31439"
         d="m 7652.0701,-173.09041 c 0,-135.91469 -123.7419,-246.10972 -276.4028,-246.10972 H 311.42087 c -152.66099,0 -276.41697,110.19503 -276.41697,246.10972 V 1503.8143 c 0,135.9151 123.75598,246.0957 276.41697,246.0957 H 7375.6673 c 152.6609,0 276.4028,-110.1806 276.4028,-246.0957 V -173.09041" /><g
         transform="matrix(12.402142,0,0,12.402142,541.42762,-420.35314)"
         id="g16"><text
   id="text18"
   style="font-variant:normal;font-weight:normal;font-size:75px;font-family:Arial;-inkscape-font-specification:ArialMT;writing-mode:lr-tb;fill:#ffffff;fill-opacity:1;fill-rule:nonzero;stroke:none"
   transform="matrix(1,0,0,-1,255.228,37.4949)"><tspan
     id="tspan20"
     y="0"
     x="0 50.025002 91.724998 133.425 158.39999 200.10001 216.75">Android</tspan></text>
</g><g
         id="g22"
         transform="matrix(1.2402142,0,0,1.2402142,-8.4084321,-420.35314)"><g
           clip-path="url(#clipPath26)"
           id="g24"
           transform="translate(-30.546448,152.73224)"><path
             id="path30"
             style="fill:#9fc732;fill-opacity:1;fill-rule:nonzero;stroke:none"
             d="M 1750.92,847.742 H 725.605 c -22.789,0 -41.273,-18.496 -41.273,-41.277 V -53.3594 c 0,-22.8125 18.484,-41.3125 41.273,-41.3125 H 908.398 V -384.41 c 0,-67.25 54.516,-121.762 121.732,-121.762 67.24,0 121.74,54.512 121.74,121.762 v 289.7381 h 170.27 V -384.41 c 0,-67.25 54.51,-121.762 121.73,-121.762 67.24,0 121.73,54.512 121.73,121.762 v 289.7381 h 185.32 c 22.83,0 41.31,18.5 41.31,41.3125 V 806.465 c 0,22.781 -18.48,41.277 -41.31,41.277 v 0" /><path
             id="path32"
             style="fill:#9fc732;fill-opacity:1;fill-rule:nonzero;stroke:none"
             d="m 510.738,847.957 c -67.222,0 -121.734,-54.512 -121.734,-121.738 V 231.75 c 0,-67.211 54.488,-121.711 121.734,-121.711 67.215,0 121.727,54.5 121.727,121.711 v 494.469 c 0,67.226 -54.512,121.738 -121.727,121.738 v 0" /></g></g><g
         id="g34"
         transform="matrix(1.2402142,0,0,1.2402142,-46.292569,-230.93246)"><g
           clip-path="url(#clipPath38)"
           id="g36"><g
             clip-path="url(#clipPath44)"
             id="g42"><path
               id="path48"
               style="fill:#9fc732;fill-opacity:1;fill-rule:nonzero;stroke:none"
               d="m 1965.82,847.957 c -67.25,0 -121.74,-54.512 -121.74,-121.738 V 231.75 c 0,-67.211 54.49,-121.711 121.74,-121.711 67.22,0 121.73,54.5 121.73,121.711 v 494.469 c 0,67.226 -54.51,121.738 -121.73,121.738 v 0" /><path
               id="path50"
               style="fill:#9fc732;fill-opacity:1;fill-rule:nonzero;stroke:none"
               d="m 983.574,1186.16 c 25.846,0 46.796,-20.95 46.796,-46.8 0,-25.84 -20.95,-46.79 -46.796,-46.79 -25.824,0 -46.797,20.95 -46.797,46.79 0,25.85 20.95,46.8 46.797,46.8 z m 553.746,-46.8 c 0,-25.84 -20.93,-46.79 -46.77,-46.79 -25.85,0 -46.8,20.95 -46.8,46.79 0,25.85 20.95,46.8 46.8,46.8 25.84,0 46.77,-20.95 46.77,-46.8 z M 733.918,908.055 H 1740.22 c 26.23,0 45.82,24.179 40.41,49.883 -33.27,158.632 -134.26,292.332 -271.33,369.572 l 86.02,155.19 c 5.83,10.51 2.03,23.77 -8.48,29.57 -10.54,5.86 -23.74,2.03 -29.57,-8.47 l -86.67,-156.37 c -71,32.93 -150.11,51.33 -233.52,51.33 -83.45,0 -162.56,-18.4 -233.54,-51.33 l -86.688,156.39 c -5.829,10.51 -19.059,14.28 -29.571,8.47 -10.508,-5.82 -14.301,-19.06 -8.48,-29.56 l 86.023,-155.22 c -137.047,-77.24 -238.07,-210.94 -271.347,-369.572 -5.395,-25.704 14.191,-49.883 40.441,-49.883 v 0" /></g></g></g><g
         transform="matrix(12.402142,0,0,12.402142,541.42762,-420.35314)"
         id="g52"><text
   id="text54"
   style="font-variant:normal;font-weight:normal;font-size:35px;font-family:Arial;-inkscape-font-specification:ArialMT;writing-mode:lr-tb;fill:#ffffff;fill-opacity:1;fill-rule:nonzero;stroke:none"
   transform="matrix(1,0,0,-1,255.113,110.995)"><tspan
     id="tspan56"
     y="0"
     x="0 25.27 44.73 70 89.459999 97.230003 116.69 136.14999 155.61 165.34048 175.103 194.56349">Download for</tspan></text>
</g></g></g></svg>
