<?xml version="1.0" encoding="UTF-8" standalone="no"?>
<svg
   xmlns:dc="http://purl.org/dc/elements/1.1/"
   xmlns:cc="http://creativecommons.org/ns#"
   xmlns:rdf="http://www.w3.org/1999/02/22-rdf-syntax-ns#"
   xmlns:svg="http://www.w3.org/2000/svg"
   xmlns="http://www.w3.org/2000/svg"
   xmlns:sodipodi="http://sodipodi.sourceforge.net/DTD/sodipodi-0.dtd"
   xmlns:inkscape="http://www.inkscape.org/namespaces/inkscape"
   width="3000"
   height="3000"
   viewBox="0 0 793.74999 793.75002"
   version="1.1"
   id="svg3030"
   inkscape:version="1.0.2-2 (e86c870879, 2021-01-15)"
   sodipodi:docname="container.svg">
  <defs
     id="defs3024" />
  <sodipodi:namedview
     id="base"
     pagecolor="#ffffff"
     bordercolor="#666666"
     borderopacity="1.0"
     inkscape:pageopacity="0.0"
     inkscape:pageshadow="2"
     inkscape:zoom="0.12374369"
     inkscape:cx="2277.1462"
     inkscape:cy="2749.0699"
     inkscape:document-units="px"
     inkscape:current-layer="layer1"
     inkscape:document-rotation="0"
     showgrid="false"
     units="px"
     inkscape:window-width="1267"
     inkscape:window-height="1040"
     inkscape:window-x="437"
     inkscape:window-y="136"
     inkscape:window-maximized="0" />
  <metadata
     id="metadata3027">
    <rdf:RDF>
      <cc:Work
         rdf:about="">
        <dc:format>image/svg+xml</dc:format>
        <dc:type
           rdf:resource="http://purl.org/dc/dcmitype/StillImage" />
        <dc:title></dc:title>
      </cc:Work>
    </rdf:RDF>
  </metadata>
  <g
     inkscape:label="Layer 1"
     inkscape:groupmode="layer"
     id="layer1">
    <g
       opacity="1"
       id="g2418"
       transform="matrix(1.7474272,0,0,1.8652226,85.240941,-445.76539)"
       style="clip-rule:evenodd;fill-rule:evenodd;stroke-linecap:round;stroke-linejoin:round">
      <g
         opacity="1"
         id="g2406">
        <path
           d="m 104.656,474.763 c 5.187,0 8.773,-3.531 8.773,-8.607 0,-2.538 -0.828,-4.414 -3.752,-8.332 L 90.8071,432.333 108.518,413.187 c 2.428,-2.648 3.311,-4.359 3.311,-6.621 0,-4.469 -3.476,-8.001 -8,-8.001 -2.594,0 -4.6904,1.159 -7.1733,3.863 L 71.33,429.96 h -0.9932 v -21.684 c 0,-6.235 -3.3105,-9.821 -9.1591,-9.821 -5.8487,0 -9.104,3.531 -9.104,9.821 v 56.776 c 0,6.18 3.4209,9.821 9.3247,9.821 5.7383,0 8.9384,-3.531 8.9384,-9.821 v -14.125 l 6.9522,-7.062 18.3184,25.215 c 2.8691,3.973 5.6276,5.683 9.0486,5.683 z"
           opacity="1"
           fill="#3e84ba"
           id="path2398" />
        <path
           d="m 132.41,474.873 c 5.628,0 8.883,-3.365 8.883,-9.71 v -60.859 c 0,-6.401 -3.255,-9.766 -8.883,-9.766 -5.628,0 -8.829,3.365 -8.829,9.766 v 60.859 c 0,6.345 3.201,9.71 8.829,9.71 z"
           opacity="1"
           fill="#3e84ba"
           id="path2400" />
        <path
           d="m 253.3,465.218 v -29.85 c 0,-13.298 -7.063,-20.857 -19.477,-20.857 -8.387,0 -15.174,4.359 -17.326,11.09 h -0.882 v -2.151 c -0.276,-5.573 -3.311,-8.553 -8.553,-8.553 -5.352,0 -8.662,3.532 -8.662,9.38 v 40.886 c 0,6.234 3.2,9.71 8.883,9.71 5.683,0 8.828,-3.476 8.828,-9.71 v -23.45 c 0,-7.78 4.028,-12.525 10.263,-12.525 5.793,0 9.159,4.028 9.159,10.814 v 25.161 c 0,6.234 3.145,9.71 8.883,9.71 5.684,0 8.884,-3.365 8.884,-9.655 z"
           opacity="1"
           fill="#3e84ba"
           id="path2402" />
        <path
           d="m 301.634,463.728 h 0.883 v 7.449 c 0,7.945 -3.697,11.531 -11.532,11.531 -5.959,0 -9.325,-2.041 -12.029,-3.531 -1.931,-1.159 -3.531,-2.097 -5.959,-2.097 -4.358,0 -7.117,2.594 -7.117,6.511 0,3.807 2.428,7.008 6.455,9.215 4.304,2.372 10.704,3.641 18.76,3.641 17.932,0 29.133,-8.221 29.133,-23.836 v -48.223 c 0,-6.29 -3.255,-9.711 -8.883,-9.711 -5.021,0 -8.277,2.814 -8.663,8.221 v 1.49 h -0.883 c -2.041,-5.683 -8.166,-9.877 -16.608,-9.877 -13.131,0 -21.684,9.877 -21.684,26.981 v 4.525 c 0,17.104 8.553,26.925 21.74,26.925 8.11,0 14.235,-3.752 16.387,-9.214 z m -19.808,-17.436 v -4.027 c 0,-8.663 3.972,-14.015 10.373,-14.015 6.621,0 10.318,5.573 10.318,13.408 v 5.297 c 0,7.724 -3.642,13.352 -10.208,13.352 -6.4,0 -10.483,-5.407 -10.483,-14.015 z"
           opacity="1"
           fill="#3e84ba"
           id="path2404" />
      </g>
      <path
         stroke="#c5c7c8"
         stroke-width="16.7912"
         d="m 169.616,384.696 -0.219,65.377"
         fill="#b4a6a6"
         stroke-linecap="round"
         opacity="1"
         stroke-linejoin="round"
         id="path2408" />
      <path
         d="m 161.401,486.289 c 0,-5.006 10.454,-22.678 8.992,-17.074 -0.883,3.384 3.477,7.442 6.664,11.241 1.738,2.072 3.127,4.066 3.127,5.833 0,5.006 -4.205,9.064 -9.392,9.064 -5.186,0 -9.391,-4.058 -9.391,-9.064 z"
         opacity="1"
         fill="#96dee8"
         id="path2410" />
      <g
         opacity="1"
         id="g2416">
        <path
           d="m 246.119,493.966 c 2.618,2.549 4.102,5.271 4.102,8.11 0,14.019 -34.609,25.401 -77.298,25.401 -42.689,0 -77.2984,-11.382 -77.2984,-25.401 0,-2.554 1.1913,-4.996 3.328,-7.321 -4.8537,3.623 -7.6621,7.639 -7.6621,11.896 0,15.648 36.6275,28.336 81.7875,28.336 45.159,0 81.768,-12.688 81.768,-28.336 0,-4.561 -3.201,-8.868 -8.727,-12.685 z"
           opacity="1"
           fill="#3e84ba"
           id="path2412" />
        <path
           d="m 233.02,488.097 c 0.495,1.269 0.832,2.555 0.832,3.881 0,13.65 -27.216,24.707 -60.794,24.707 -33.578,0 -60.793,-11.057 -60.793,-24.707 0,-1.225 0.292,-2.42 0.715,-3.597 -2.744,2.745 -4.314,5.72 -4.314,8.835 0,13.65 28.863,24.707 64.47,24.707 35.606,10e-4 64.489,-11.057 64.489,-24.707 0,-3.228 -1.669,-6.293 -4.605,-9.119 z"
           opacity="1"
           fill="#3e84ba"
           id="path2414" />
      </g>
    </g>
  </g>
</svg>
